<svg width="582" height="62" viewBox="0 0 582 62" fill="none" xmlns="http://www.w3.org/2000/svg">
<g filter="url(#filter0_ddd_1_2)">
<path d="M135.635 30.2402C135.155 38.0002 135.475 45.4002 136.195 52.7202H125.115C124.835 50.5202 124.675 48.5602 124.595 46.6402C121.955 51.2802 116.995 53.4402 109.555 53.4402C94.675 53.4402 85.995 42.5602 85.995 26.7202C85.995 10.8802 94.675 0.000211716 110.195 0.000211716C117.035 0.000211716 121.995 2.08021 124.715 6.56021C124.795 4.68021 124.915 2.80021 125.195 0.720212H136.595C135.875 7.72021 135.395 15.4402 135.635 23.6002H123.515C122.035 13.7602 117.995 11.5602 112.595 11.5602C105.035 11.5602 101.555 17.4002 101.555 26.7202C101.555 36.0402 105.035 41.8802 112.595 41.8802C118.075 41.8802 122.035 39.6802 123.515 30.2402H135.635ZM185.867 41.3202H193.227V52.7202H168.427V41.3202H171.467L165.827 31.4002L161.587 35.7202V41.3202H165.267V52.7202H141.547V41.3202H148.507V12.1202H141.547V0.720212H165.267V12.1202H161.587V24.2802L172.107 12.1202H168.467V0.720212H192.467V12.1202H184.667L174.627 22.4002L185.867 41.3202ZM223.905 53.4402C210.345 53.4402 203.105 47.2002 202.945 31.3202L202.705 12.1202H197.145V0.720212H222.345V12.1202H215.745V31.1602C215.745 38.4002 218.505 41.6402 223.905 41.6402C229.305 41.6402 232.065 38.4002 232.065 31.1602V12.1202H225.465V0.720212H250.625V12.1202H245.065L244.825 31.3202C244.665 47.2002 237.465 53.4402 223.905 53.4402ZM255.266 52.7202V41.3202H262.706V12.1202H255.426V0.720212H281.186C293.506 0.720212 299.826 6.28021 299.826 16.8402C299.826 28.0002 293.506 33.9202 281.226 33.9202H275.746V41.3202H285.026V52.7202H255.266ZM275.746 24.4402H279.906C284.386 24.4402 285.986 22.0002 285.986 18.0002C285.986 14.1602 284.386 12.1202 279.906 12.1202H275.746V24.4402ZM352.874 41.3202H359.234V52.7202H333.034V41.3202H339.034L337.834 35.8802H325.194L324.034 41.3202H330.034V52.7202H303.834V41.3202H310.194L317.594 12.1202H312.394V0.720212H350.714V12.1202H345.474L352.874 41.3202ZM327.234 26.6002H335.794L332.634 12.1202H330.434L327.234 26.6002ZM388.573 12.1202V41.3202H396.693V52.7202H367.373V41.3202H375.533V12.1202H369.973C369.893 17.0402 369.653 20.6802 369.293 24.3602H358.613C359.333 16.8802 359.573 7.88021 359.253 0.720212H404.813C404.493 7.88021 404.733 16.8802 405.453 24.3602H394.813C394.453 20.6402 394.213 17.0402 394.133 12.1202H388.573ZM409.672 52.7202V41.3202H416.792V12.1202H409.992V0.720212H436.112V12.1202H429.792V21.1202H445.552V12.1202H439.272V0.720212H465.392V12.1202H458.592V41.3202H465.712V52.7202H439.232V41.3202H445.552V31.4802H429.792V41.3202H436.112V52.7202H409.672ZM494.547 53.4402C477.227 53.4402 468.307 42.4802 468.307 26.7202C468.307 10.9602 477.227 0.000211716 494.547 0.000211716C511.907 0.000211716 520.827 10.9602 520.827 26.7202C520.827 42.4802 511.907 53.4402 494.547 53.4402ZM494.547 41.5602C502.427 41.5602 506.187 35.8002 506.187 26.7202C506.187 17.6402 502.427 11.8802 494.547 11.8802C486.707 11.8802 482.947 17.6402 482.947 26.7202C482.947 35.8002 486.707 41.5602 494.547 41.5602ZM551.871 0.720212H577.871L577.631 12.1202H571.511V52.7202H559.431L545.631 29.0002C544.351 26.8002 543.111 24.5602 541.991 22.1602C542.071 24.4402 542.151 26.8802 542.151 29.6402V41.3202H550.311V52.7202H523.391V41.3202H530.431V12.1202H523.471L523.671 0.720212H543.031L555.271 22.0402C556.951 25.0802 558.511 28.0002 560.151 31.4402C559.911 28.2402 559.791 25.0002 559.791 21.4802V12.1202H551.871V0.720212Z" fill="white"/>
</g>
<g filter="url(#filter1_ddd_1_2)">
<path d="M37.88 12.1202H23.16V22.1602H25.88C26.04 20.3202 26.32 18.4002 26.68 16.3602H35.52C35.12 20.1202 34.96 23.6002 34.96 26.6402C34.96 29.7602 35.12 32.9202 35.52 36.8402H26.68C26.32 34.8002 26.08 32.9602 25.92 31.2002H23.16V41.3202H33.84V52.7202H3.99996V41.3202H10.44V12.1202H4.15996V0.720212H48.84C48.68 10.8402 48.92 17.6802 49.56 24.2802H38.64C38.2 20.3602 37.96 16.4802 37.88 12.1202Z" fill="white"/>
</g>
<defs>
<filter id="filter0_ddd_1_2" x="81.9951" y="0" width="499.875" height="61.4404" filterUnits="userSpaceOnUse" color-interpolation-filters="sRGB">
<feFlood flood-opacity="0" result="BackgroundImageFix"/>
<feColorMatrix in="SourceAlpha" type="matrix" values="0 0 0 0 0 0 0 0 0 0 0 0 0 0 0 0 0 0 127 0" result="hardAlpha"/>
<feOffset dy="4"/>
<feGaussianBlur stdDeviation="2"/>
<feComposite in2="hardAlpha" operator="out"/>
<feColorMatrix type="matrix" values="0 0 0 0 0 0 0 0 0 0 0 0 0 0 0 0 0 0 0.25 0"/>
<feBlend mode="normal" in2="BackgroundImageFix" result="effect1_dropShadow_1_2"/>
<feColorMatrix in="SourceAlpha" type="matrix" values="0 0 0 0 0 0 0 0 0 0 0 0 0 0 0 0 0 0 127 0" result="hardAlpha"/>
<feOffset dy="4"/>
<feGaussianBlur stdDeviation="2"/>
<feComposite in2="hardAlpha" operator="out"/>
<feColorMatrix type="matrix" values="0 0 0 0 0 0 0 0 0 0 0 0 0 0 0 0 0 0 0.25 0"/>
<feBlend mode="normal" in2="effect1_dropShadow_1_2" result="effect2_dropShadow_1_2"/>
<feColorMatrix in="SourceAlpha" type="matrix" values="0 0 0 0 0 0 0 0 0 0 0 0 0 0 0 0 0 0 127 0" result="hardAlpha"/>
<feOffset dy="4"/>
<feGaussianBlur stdDeviation="2"/>
<feComposite in2="hardAlpha" operator="out"/>
<feColorMatrix type="matrix" values="0 0 0 0 0 0 0 0 0 0 0 0 0 0 0 0 0 0 0.25 0"/>
<feBlend mode="normal" in2="effect2_dropShadow_1_2" result="effect3_dropShadow_1_2"/>
<feBlend mode="normal" in="SourceGraphic" in2="effect3_dropShadow_1_2" result="shape"/>
</filter>
<filter id="filter1_ddd_1_2" x="0" y="0.720215" width="53.5601" height="60" filterUnits="userSpaceOnUse" color-interpolation-filters="sRGB">
<feFlood flood-opacity="0" result="BackgroundImageFix"/>
<feColorMatrix in="SourceAlpha" type="matrix" values="0 0 0 0 0 0 0 0 0 0 0 0 0 0 0 0 0 0 127 0" result="hardAlpha"/>
<feOffset dy="4"/>
<feGaussianBlur stdDeviation="2"/>
<feComposite in2="hardAlpha" operator="out"/>
<feColorMatrix type="matrix" values="0 0 0 0 0 0 0 0 0 0 0 0 0 0 0 0 0 0 0.25 0"/>
<feBlend mode="normal" in2="BackgroundImageFix" result="effect1_dropShadow_1_2"/>
<feColorMatrix in="SourceAlpha" type="matrix" values="0 0 0 0 0 0 0 0 0 0 0 0 0 0 0 0 0 0 127 0" result="hardAlpha"/>
<feOffset dy="4"/>
<feGaussianBlur stdDeviation="2"/>
<feComposite in2="hardAlpha" operator="out"/>
<feColorMatrix type="matrix" values="0 0 0 0 0 0 0 0 0 0 0 0 0 0 0 0 0 0 0.25 0"/>
<feBlend mode="normal" in2="effect1_dropShadow_1_2" result="effect2_dropShadow_1_2"/>
<feColorMatrix in="SourceAlpha" type="matrix" values="0 0 0 0 0 0 0 0 0 0 0 0 0 0 0 0 0 0 127 0" result="hardAlpha"/>
<feOffset dy="4"/>
<feGaussianBlur stdDeviation="2"/>
<feComposite in2="hardAlpha" operator="out"/>
<feColorMatrix type="matrix" values="0 0 0 0 0 0 0 0 0 0 0 0 0 0 0 0 0 0 0.25 0"/>
<feBlend mode="normal" in2="effect2_dropShadow_1_2" result="effect3_dropShadow_1_2"/>
<feBlend mode="normal" in="SourceGraphic" in2="effect3_dropShadow_1_2" result="shape"/>
</filter>
</defs>
</svg>
